<?xml version="1.0" encoding="UTF-8" standalone="no"?>
<!-- Generator: Adobe Illustrator 16.0.0, SVG Export Plug-In . SVG Version: 6.00 Build 0)  -->

<svg
   xmlns:dc="http://purl.org/dc/elements/1.1/"
   xmlns:cc="http://creativecommons.org/ns#"
   xmlns:rdf="http://www.w3.org/1999/02/22-rdf-syntax-ns#"
   xmlns:svg="http://www.w3.org/2000/svg"
   xmlns="http://www.w3.org/2000/svg"
   xmlns:sodipodi="http://sodipodi.sourceforge.net/DTD/sodipodi-0.dtd"
   xmlns:inkscape="http://www.inkscape.org/namespaces/inkscape"
   version="1.1"
   id="Layer_1"
   x="0px"
   y="0px"
   width="510px"
   height="295px"
   viewBox="0 0 510 295"
   enable-background="new 0 0 510 295"
   xml:space="preserve"
   sodipodi:docname="Von_Neumann_Architecture.svg"
   inkscape:version="0.92.5 (2060ec1f9f, 2020-04-08)"><metadata
   id="metadata249"><rdf:RDF><cc:Work
       rdf:about=""><dc:format>image/svg+xml</dc:format><dc:type
         rdf:resource="http://purl.org/dc/dcmitype/StillImage" /></cc:Work></rdf:RDF></metadata><defs
   id="defs247">
	
	
	
	

		
		
	
			
			
		<filter
   inkscape:collect="always"
   style="color-interpolation-filters:sRGB"
   id="filter1222"><feBlend
     inkscape:collect="always"
     mode="lighten"
     in2="BackgroundImage"
     id="feBlend1224" /></filter>
		
		
		
	</defs><sodipodi:namedview
   pagecolor="#ffffff"
   bordercolor="#666666"
   borderopacity="1"
   objecttolerance="10"
   gridtolerance="10"
   guidetolerance="10"
   inkscape:pageopacity="0"
   inkscape:pageshadow="2"
   inkscape:window-width="1884"
   inkscape:window-height="1054"
   id="namedview245"
   showgrid="false"
   inkscape:zoom="0.76078431"
   inkscape:cx="-34.175258"
   inkscape:cy="147.5"
   inkscape:window-x="36"
   inkscape:window-y="0"
   inkscape:window-maximized="1"
   inkscape:current-layer="Layer_1" />
<path
   style="fill:none;stroke:#000000;stroke-width:2;stroke-miterlimit:10"
   inkscape:connector-curvature="0"
   id="path2"
   d="M 142,147.063"
   stroke-miterlimit="10" /><g
   id="g168">
		<rect
   style="fill:#65a8a1;stroke:#000000;stroke-width:2;stroke-miterlimit:10"
   id="rect4"
   height="293"
   width="220"
   stroke-miterlimit="10"
   y="1.5"
   x="145" />
		<g
   id="g126">
			<rect
   style="fill:#ffffff;stroke:#000000;stroke-width:2;stroke-miterlimit:10"
   id="rect6"
   height="165"
   width="190"
   stroke-miterlimit="10"
   y="16.5"
   x="160" />
			<g
   id="g50">
				<path
   inkscape:connector-curvature="0"
   id="path8"
   d="m 183.079,39.652 1.962,0.622 c -0.301,1.094 -0.801,1.906 -1.5,2.437 -0.699,0.531 -1.587,0.796 -2.663,0.796 -1.331,0 -2.424,-0.455 -3.281,-1.364 -0.857,-0.909 -1.285,-2.152 -1.285,-3.729 0,-1.668 0.431,-2.963 1.292,-3.886 0.861,-0.923 1.994,-1.384 3.397,-1.384 1.226,0 2.222,0.362 2.987,1.087 0.456,0.428 0.797,1.043 1.025,1.846 l -2.003,0.479 c -0.119,-0.52 -0.366,-0.93 -0.742,-1.23 -0.376,-0.3 -0.833,-0.451 -1.371,-0.451 -0.743,0 -1.346,0.267 -1.808,0.8 -0.462,0.533 -0.694,1.397 -0.694,2.591 0,1.267 0.228,2.169 0.684,2.707 0.456,0.538 1.048,0.807 1.777,0.807 0.538,0 1,-0.171 1.388,-0.513 0.388,-0.342 0.667,-0.881 0.835,-1.615 z" />
				<path
   inkscape:connector-curvature="0"
   id="path10"
   d="m 190.968,41.026 1.914,0.321 c -0.246,0.702 -0.635,1.236 -1.166,1.603 -0.531,0.367 -1.195,0.55 -1.993,0.55 -1.262,0 -2.197,-0.413 -2.803,-1.237 -0.479,-0.661 -0.718,-1.495 -0.718,-2.502 0,-1.203 0.314,-2.146 0.943,-2.827 0.629,-0.681 1.424,-1.022 2.386,-1.022 1.08,0 1.932,0.356 2.557,1.07 0.625,0.714 0.923,1.806 0.896,3.278 h -4.813 c 0.014,0.57 0.168,1.013 0.465,1.33 0.297,0.317 0.666,0.475 1.107,0.475 0.301,0 0.554,-0.082 0.759,-0.246 0.205,-0.164 0.361,-0.428 0.466,-0.793 z m 0.109,-1.942 c -0.014,-0.556 -0.157,-0.979 -0.431,-1.268 -0.274,-0.289 -0.606,-0.434 -0.998,-0.434 -0.419,0 -0.766,0.153 -1.039,0.458 -0.273,0.305 -0.408,0.72 -0.403,1.244 z" />
				<path
   inkscape:connector-curvature="0"
   id="path12"
   d="m 201.153,43.336 h -1.921 v -3.705 c 0,-0.784 -0.041,-1.291 -0.123,-1.521 -0.082,-0.23 -0.215,-0.409 -0.4,-0.537 -0.185,-0.128 -0.407,-0.191 -0.667,-0.191 -0.333,0 -0.631,0.091 -0.896,0.273 -0.265,0.182 -0.445,0.424 -0.543,0.725 -0.098,0.301 -0.147,0.857 -0.147,1.668 v 3.288 h -1.921 v -7.26 h 1.784 v 1.066 c 0.633,-0.82 1.431,-1.23 2.393,-1.23 0.424,0 0.811,0.076 1.162,0.229 0.351,0.153 0.616,0.348 0.796,0.584 0.18,0.236 0.305,0.506 0.376,0.807 0.071,0.301 0.106,0.731 0.106,1.292 v 4.512 z" />
				<path
   inkscape:connector-curvature="0"
   id="path14"
   d="m 206.431,36.077 v 1.531 h -1.313 v 2.926 c 0,0.592 0.013,0.938 0.038,1.036 0.025,0.098 0.082,0.179 0.171,0.243 0.089,0.064 0.197,0.096 0.325,0.096 0.178,0 0.435,-0.062 0.772,-0.185 l 0.164,1.49 c -0.447,0.191 -0.953,0.287 -1.518,0.287 -0.346,0 -0.659,-0.058 -0.937,-0.174 -0.278,-0.116 -0.482,-0.267 -0.612,-0.451 -0.13,-0.184 -0.22,-0.434 -0.27,-0.749 -0.041,-0.223 -0.062,-0.674 -0.062,-1.354 v -3.165 h -0.882 v -1.531 h 0.882 v -1.442 l 1.928,-1.121 v 2.563 z" />
				<path
   inkscape:connector-curvature="0"
   id="path16"
   d="m 209.603,43.336 h -1.921 v -7.26 h 1.784 v 1.032 c 0.305,-0.488 0.58,-0.809 0.824,-0.964 0.244,-0.155 0.521,-0.232 0.831,-0.232 0.438,0 0.859,0.121 1.265,0.362 l -0.595,1.675 c -0.324,-0.209 -0.625,-0.314 -0.902,-0.314 -0.269,0 -0.497,0.074 -0.684,0.222 -0.187,0.148 -0.334,0.416 -0.441,0.803 -0.107,0.387 -0.161,1.199 -0.161,2.434 z" />
				<path
   inkscape:connector-curvature="0"
   id="path18"
   d="m 214.647,38.292 -1.743,-0.314 c 0.196,-0.702 0.533,-1.221 1.012,-1.559 0.479,-0.338 1.189,-0.506 2.133,-0.506 0.857,0 1.495,0.102 1.914,0.304 0.419,0.202 0.714,0.46 0.885,0.772 0.171,0.312 0.256,0.885 0.256,1.719 l -0.021,2.242 c 0,0.638 0.031,1.108 0.092,1.412 0.061,0.304 0.177,0.628 0.345,0.974 h -1.9 c -0.05,-0.127 -0.112,-0.317 -0.185,-0.567 -0.032,-0.114 -0.055,-0.189 -0.068,-0.226 -0.328,0.319 -0.679,0.558 -1.053,0.718 -0.374,0.16 -0.772,0.239 -1.196,0.239 -0.748,0 -1.336,-0.203 -1.767,-0.608 -0.431,-0.405 -0.646,-0.918 -0.646,-1.538 0,-0.41 0.098,-0.776 0.294,-1.097 0.196,-0.321 0.471,-0.567 0.824,-0.738 0.353,-0.171 0.862,-0.32 1.528,-0.448 0.898,-0.168 1.52,-0.326 1.866,-0.472 v -0.191 c 0,-0.369 -0.091,-0.632 -0.273,-0.79 -0.182,-0.158 -0.526,-0.236 -1.032,-0.236 -0.342,0 -0.608,0.067 -0.8,0.202 -0.192,0.135 -0.346,0.37 -0.465,0.708 z m 2.571,1.558 c -0.246,0.082 -0.636,0.18 -1.169,0.294 -0.533,0.114 -0.882,0.226 -1.046,0.335 -0.25,0.178 -0.376,0.403 -0.376,0.677 0,0.269 0.1,0.501 0.301,0.697 0.201,0.196 0.456,0.294 0.766,0.294 0.346,0 0.677,-0.114 0.991,-0.342 0.232,-0.173 0.385,-0.385 0.458,-0.636 0.05,-0.164 0.075,-0.476 0.075,-0.937 z" />
				<path
   inkscape:connector-curvature="0"
   id="path20"
   d="M 220.998,43.336 V 33.315 h 1.921 v 10.021 z" />
				<path
   inkscape:connector-curvature="0"
   id="path22"
   d="M 228.791,43.336 V 33.315 h 3.247 c 1.23,0 2.033,0.05 2.406,0.15 0.574,0.15 1.055,0.478 1.442,0.981 0.387,0.503 0.581,1.154 0.581,1.952 0,0.615 -0.112,1.132 -0.335,1.552 -0.223,0.42 -0.507,0.749 -0.851,0.988 -0.344,0.239 -0.694,0.397 -1.049,0.475 -0.483,0.096 -1.183,0.144 -2.099,0.144 h -1.319 v 3.78 h -2.023 z m 2.023,-8.326 v 2.844 h 1.107 c 0.797,0 1.331,-0.052 1.6,-0.157 0.269,-0.105 0.479,-0.269 0.632,-0.492 0.153,-0.223 0.229,-0.483 0.229,-0.779 0,-0.365 -0.107,-0.666 -0.321,-0.902 -0.214,-0.236 -0.485,-0.385 -0.813,-0.444 -0.242,-0.045 -0.727,-0.068 -1.456,-0.068 h -0.978 z" />
				<path
   inkscape:connector-curvature="0"
   id="path24"
   d="m 239.954,43.336 h -1.921 v -7.26 h 1.784 v 1.032 c 0.305,-0.488 0.58,-0.809 0.824,-0.964 0.244,-0.155 0.521,-0.232 0.831,-0.232 0.438,0 0.859,0.121 1.265,0.362 l -0.595,1.675 c -0.324,-0.209 -0.625,-0.314 -0.902,-0.314 -0.269,0 -0.497,0.074 -0.684,0.222 -0.187,0.148 -0.334,0.416 -0.441,0.803 -0.107,0.387 -0.161,1.199 -0.161,2.434 z" />
				<path
   inkscape:connector-curvature="0"
   id="path26"
   d="m 243.119,39.604 c 0,-0.638 0.157,-1.255 0.472,-1.853 0.315,-0.598 0.76,-1.053 1.336,-1.367 0.576,-0.314 1.22,-0.472 1.931,-0.472 1.098,0 1.999,0.356 2.7,1.07 0.701,0.714 1.053,1.614 1.053,2.704 0,1.098 -0.354,2.009 -1.063,2.731 -0.709,0.722 -1.601,1.083 -2.676,1.083 -0.666,0 -1.3,-0.15 -1.904,-0.451 -0.604,-0.301 -1.063,-0.742 -1.377,-1.323 -0.314,-0.581 -0.472,-1.288 -0.472,-2.122 z m 1.969,0.103 c 0,0.72 0.171,1.271 0.513,1.654 0.342,0.383 0.763,0.574 1.265,0.574 0.502,0 0.922,-0.191 1.261,-0.574 0.339,-0.383 0.509,-0.939 0.509,-1.668 0,-0.711 -0.17,-1.258 -0.509,-1.641 -0.339,-0.383 -0.76,-0.574 -1.261,-0.574 -0.501,0 -0.923,0.191 -1.265,0.574 -0.342,0.383 -0.513,0.934 -0.513,1.655 z" />
				<path
   inkscape:connector-curvature="0"
   id="path28"
   d="m 258.445,38.223 -1.894,0.342 c -0.063,-0.378 -0.208,-0.663 -0.435,-0.854 -0.225,-0.191 -0.518,-0.287 -0.878,-0.287 -0.479,0 -0.86,0.165 -1.146,0.496 -0.284,0.331 -0.427,0.883 -0.427,1.658 0,0.861 0.145,1.47 0.435,1.825 0.289,0.355 0.678,0.533 1.165,0.533 0.364,0 0.663,-0.104 0.896,-0.311 0.233,-0.207 0.396,-0.564 0.492,-1.07 l 1.887,0.321 c -0.195,0.866 -0.572,1.52 -1.128,1.962 -0.556,0.442 -1.302,0.663 -2.235,0.663 -1.063,0 -1.908,-0.335 -2.54,-1.005 -0.632,-0.67 -0.947,-1.597 -0.947,-2.782 0,-1.199 0.317,-2.132 0.95,-2.799 0.633,-0.667 1.49,-1.001 2.57,-1.001 0.884,0 1.587,0.19 2.108,0.571 0.525,0.379 0.899,0.959 1.127,1.738 z" />
				<path
   inkscape:connector-curvature="0"
   id="path30"
   d="m 264.105,41.026 1.914,0.321 c -0.246,0.702 -0.635,1.236 -1.166,1.603 -0.53,0.367 -1.195,0.55 -1.992,0.55 -1.262,0 -2.197,-0.413 -2.803,-1.237 -0.479,-0.661 -0.718,-1.495 -0.718,-2.502 0,-1.203 0.314,-2.146 0.943,-2.827 0.629,-0.681 1.425,-1.022 2.386,-1.022 1.08,0 1.932,0.356 2.557,1.07 0.625,0.714 0.923,1.806 0.896,3.278 h -4.813 c 0.014,0.57 0.169,1.013 0.465,1.33 0.296,0.317 0.665,0.475 1.107,0.475 0.301,0 0.554,-0.082 0.759,-0.246 0.205,-0.164 0.36,-0.428 0.465,-0.793 z m 0.11,-1.942 c -0.014,-0.556 -0.157,-0.979 -0.431,-1.268 -0.274,-0.289 -0.606,-0.434 -0.998,-0.434 -0.419,0 -0.766,0.153 -1.039,0.458 -0.273,0.305 -0.407,0.72 -0.403,1.244 z" />
				<path
   inkscape:connector-curvature="0"
   id="path32"
   d="m 267.011,41.265 1.928,-0.294 c 0.082,0.374 0.249,0.657 0.499,0.851 0.25,0.194 0.602,0.291 1.053,0.291 0.496,0 0.871,-0.091 1.121,-0.273 0.168,-0.127 0.253,-0.298 0.253,-0.513 0,-0.146 -0.046,-0.267 -0.137,-0.362 -0.096,-0.091 -0.31,-0.175 -0.643,-0.253 -1.55,-0.342 -2.532,-0.654 -2.946,-0.937 -0.574,-0.392 -0.861,-0.937 -0.861,-1.634 0,-0.629 0.248,-1.158 0.745,-1.586 0.497,-0.428 1.267,-0.643 2.311,-0.643 0.993,0 1.731,0.162 2.215,0.485 0.484,0.323 0.815,0.802 0.998,1.436 l -1.812,0.335 c -0.078,-0.283 -0.225,-0.499 -0.441,-0.649 -0.216,-0.15 -0.525,-0.226 -0.926,-0.226 -0.506,0 -0.868,0.071 -1.087,0.212 -0.146,0.1 -0.219,0.23 -0.219,0.39 0,0.137 0.063,0.253 0.191,0.349 0.173,0.127 0.771,0.308 1.794,0.54 1.023,0.232 1.738,0.517 2.144,0.854 0.401,0.342 0.602,0.818 0.602,1.429 0,0.666 -0.278,1.237 -0.834,1.716 -0.556,0.479 -1.379,0.717 -2.469,0.717 -0.988,0 -1.771,-0.201 -2.348,-0.602 -0.577,-0.4 -0.954,-0.945 -1.131,-1.633 z" />
				<path
   inkscape:connector-curvature="0"
   id="path34"
   d="m 274.797,41.265 1.928,-0.294 c 0.082,0.374 0.248,0.657 0.499,0.851 0.251,0.194 0.602,0.291 1.053,0.291 0.497,0 0.87,-0.091 1.121,-0.273 0.169,-0.127 0.253,-0.298 0.253,-0.513 0,-0.146 -0.045,-0.267 -0.137,-0.362 -0.096,-0.091 -0.311,-0.175 -0.643,-0.253 -1.549,-0.342 -2.531,-0.654 -2.946,-0.937 -0.574,-0.392 -0.861,-0.937 -0.861,-1.634 0,-0.629 0.249,-1.158 0.745,-1.586 0.496,-0.428 1.268,-0.643 2.311,-0.643 0.994,0 1.732,0.162 2.215,0.485 0.483,0.323 0.816,0.802 0.998,1.436 l -1.812,0.335 c -0.077,-0.283 -0.225,-0.499 -0.44,-0.649 -0.217,-0.15 -0.525,-0.226 -0.927,-0.226 -0.506,0 -0.868,0.071 -1.087,0.212 -0.146,0.1 -0.219,0.23 -0.219,0.39 0,0.137 0.064,0.253 0.191,0.349 0.174,0.127 0.771,0.308 1.795,0.54 1.022,0.232 1.736,0.517 2.143,0.854 0.4,0.342 0.602,0.818 0.602,1.429 0,0.666 -0.277,1.237 -0.834,1.716 -0.557,0.479 -1.379,0.718 -2.468,0.718 -0.989,0 -1.771,-0.201 -2.349,-0.602 -0.576,-0.401 -0.953,-0.946 -1.131,-1.634 z" />
				<path
   inkscape:connector-curvature="0"
   id="path36"
   d="m 283.26,35.092 v -1.777 h 1.921 v 1.777 z m 0,8.244 v -7.26 h 1.921 v 7.26 z" />
				<path
   inkscape:connector-curvature="0"
   id="path38"
   d="m 293.753,43.336 h -1.921 v -3.705 c 0,-0.784 -0.041,-1.291 -0.123,-1.521 -0.082,-0.23 -0.215,-0.409 -0.4,-0.537 -0.184,-0.127 -0.406,-0.191 -0.666,-0.191 -0.332,0 -0.631,0.091 -0.896,0.273 -0.265,0.182 -0.445,0.424 -0.544,0.725 -0.098,0.301 -0.146,0.857 -0.146,1.668 v 3.288 h -1.921 v -7.26 h 1.784 v 1.066 c 0.633,-0.82 1.432,-1.23 2.393,-1.23 0.424,0 0.811,0.076 1.162,0.229 0.351,0.153 0.616,0.348 0.797,0.584 0.18,0.237 0.305,0.506 0.375,0.807 0.071,0.301 0.106,0.731 0.106,1.292 z" />
				<path
   inkscape:connector-curvature="0"
   id="path40"
   d="m 295.523,43.815 2.194,0.267 c 0.036,0.255 0.12,0.431 0.253,0.526 0.182,0.137 0.469,0.205 0.861,0.205 0.502,0 0.877,-0.075 1.128,-0.226 0.169,-0.1 0.296,-0.262 0.383,-0.485 0.06,-0.16 0.089,-0.454 0.089,-0.882 v -1.06 c -0.574,0.784 -1.299,1.176 -2.174,1.176 -0.975,0 -1.748,-0.413 -2.317,-1.237 -0.446,-0.652 -0.67,-1.463 -0.67,-2.434 0,-1.217 0.293,-2.146 0.878,-2.789 0.586,-0.643 1.314,-0.964 2.185,-0.964 0.897,0 1.638,0.394 2.222,1.183 v -1.019 h 1.798 v 6.515 c 0,0.857 -0.071,1.497 -0.212,1.921 -0.141,0.424 -0.34,0.756 -0.595,0.998 -0.255,0.242 -0.596,0.431 -1.022,0.567 -0.426,0.137 -0.965,0.205 -1.616,0.205 -1.23,0 -2.103,-0.211 -2.618,-0.632 -0.515,-0.421 -0.772,-0.956 -0.772,-1.603 -10e-4,-0.064 0.002,-0.141 0.005,-0.232 z m 1.716,-4.259 c 0,0.77 0.149,1.334 0.448,1.692 0.298,0.358 0.666,0.537 1.104,0.537 0.469,0 0.865,-0.184 1.189,-0.55 0.324,-0.366 0.485,-0.91 0.485,-1.63 0,-0.752 -0.155,-1.31 -0.465,-1.675 -0.31,-0.365 -0.702,-0.547 -1.176,-0.547 -0.46,0 -0.84,0.179 -1.138,0.537 -0.297,0.357 -0.447,0.902 -0.447,1.636 z" />
				<path
   inkscape:connector-curvature="0"
   id="path42"
   d="m 308.143,33.315 h 2.023 v 5.428 c 0,0.861 0.025,1.419 0.075,1.675 0.087,0.41 0.293,0.739 0.618,0.988 0.326,0.249 0.771,0.373 1.337,0.373 0.574,0 1.007,-0.117 1.299,-0.352 0.292,-0.235 0.468,-0.523 0.526,-0.865 0.058,-0.342 0.089,-0.909 0.089,-1.702 v -5.544 h 2.023 v 5.264 c 0,1.203 -0.055,2.053 -0.164,2.55 -0.109,0.497 -0.312,0.916 -0.604,1.258 -0.295,0.342 -0.688,0.614 -1.18,0.817 -0.492,0.203 -1.135,0.304 -1.928,0.304 -0.957,0 -1.683,-0.11 -2.178,-0.332 -0.494,-0.221 -0.885,-0.508 -1.172,-0.861 -0.287,-0.353 -0.477,-0.724 -0.567,-1.111 -0.132,-0.574 -0.198,-1.422 -0.198,-2.543 v -5.347 z" />
				<path
   inkscape:connector-curvature="0"
   id="path44"
   d="m 324.856,43.336 h -1.921 v -3.705 c 0,-0.784 -0.041,-1.291 -0.123,-1.521 -0.082,-0.23 -0.215,-0.409 -0.4,-0.537 -0.184,-0.127 -0.406,-0.191 -0.666,-0.191 -0.332,0 -0.631,0.091 -0.896,0.273 -0.265,0.182 -0.445,0.424 -0.544,0.725 -0.098,0.301 -0.146,0.857 -0.146,1.668 v 3.288 h -1.921 v -7.26 h 1.784 v 1.066 c 0.633,-0.82 1.432,-1.23 2.393,-1.23 0.424,0 0.811,0.076 1.162,0.229 0.351,0.153 0.616,0.348 0.797,0.584 0.18,0.237 0.305,0.506 0.375,0.807 0.071,0.301 0.106,0.731 0.106,1.292 z" />
				<path
   inkscape:connector-curvature="0"
   id="path46"
   d="m 326.805,35.092 v -1.777 h 1.921 v 1.777 z m 0,8.244 v -7.26 h 1.921 v 7.26 z" />
				<path
   inkscape:connector-curvature="0"
   id="path48"
   d="m 334.023,36.077 v 1.531 h -1.313 v 2.926 c 0,0.592 0.013,0.938 0.037,1.036 0.025,0.098 0.082,0.179 0.172,0.243 0.088,0.064 0.197,0.096 0.324,0.096 0.178,0 0.436,-0.062 0.772,-0.185 l 0.164,1.49 c -0.446,0.191 -0.952,0.287 -1.518,0.287 -0.347,0 -0.659,-0.058 -0.937,-0.174 -0.278,-0.116 -0.482,-0.267 -0.611,-0.451 -0.131,-0.185 -0.221,-0.434 -0.271,-0.749 -0.041,-0.223 -0.062,-0.674 -0.062,-1.354 v -3.165 h -0.882 v -1.531 h 0.882 v -1.442 l 1.928,-1.121 v 2.563 z" />
			</g>
			<g
   id="g78">
				<rect
   style="fill:#f99dcb;stroke:#000000;stroke-width:2;stroke-miterlimit:10"
   id="rect52"
   height="42"
   width="160"
   stroke-miterlimit="10"
   y="62.5"
   x="176" />
				<g
   id="g76">
					<path
   inkscape:connector-curvature="0"
   id="path54"
   d="m 222.996,83.652 1.962,0.622 c -0.301,1.094 -0.801,1.906 -1.5,2.437 -0.699,0.531 -1.587,0.796 -2.663,0.796 -1.331,0 -2.424,-0.455 -3.281,-1.364 -0.857,-0.909 -1.285,-2.152 -1.285,-3.729 0,-1.668 0.431,-2.963 1.292,-3.886 0.861,-0.923 1.994,-1.384 3.397,-1.384 1.226,0 2.222,0.362 2.987,1.087 0.456,0.428 0.797,1.043 1.025,1.846 l -2.003,0.479 c -0.119,-0.52 -0.366,-0.93 -0.742,-1.23 -0.376,-0.3 -0.833,-0.451 -1.371,-0.451 -0.743,0 -1.346,0.267 -1.808,0.8 -0.462,0.533 -0.694,1.397 -0.694,2.591 0,1.267 0.228,2.169 0.684,2.707 0.456,0.538 1.048,0.807 1.777,0.807 0.538,0 1,-0.171 1.388,-0.513 0.388,-0.342 0.667,-0.881 0.835,-1.615 z" />
					<path
   inkscape:connector-curvature="0"
   id="path56"
   d="m 226.236,83.604 c 0,-0.638 0.157,-1.255 0.472,-1.853 0.315,-0.598 0.76,-1.053 1.336,-1.367 0.576,-0.314 1.22,-0.472 1.931,-0.472 1.098,0 1.999,0.356 2.7,1.07 0.701,0.714 1.053,1.614 1.053,2.704 0,1.098 -0.354,2.009 -1.063,2.731 -0.709,0.722 -1.601,1.083 -2.676,1.083 -0.666,0 -1.3,-0.15 -1.904,-0.451 -0.604,-0.301 -1.063,-0.742 -1.377,-1.323 -0.314,-0.581 -0.472,-1.288 -0.472,-2.122 z m 1.969,0.103 c 0,0.72 0.171,1.271 0.513,1.654 0.342,0.383 0.763,0.574 1.265,0.574 0.502,0 0.922,-0.191 1.261,-0.574 0.339,-0.383 0.509,-0.939 0.509,-1.668 0,-0.711 -0.17,-1.258 -0.509,-1.641 -0.339,-0.383 -0.76,-0.574 -1.261,-0.574 -0.501,0 -0.923,0.191 -1.265,0.574 -0.342,0.383 -0.513,0.934 -0.513,1.655 z" />
					<path
   inkscape:connector-curvature="0"
   id="path58"
   d="m 241.836,87.336 h -1.921 v -3.705 c 0,-0.784 -0.041,-1.291 -0.123,-1.521 -0.082,-0.23 -0.215,-0.409 -0.4,-0.537 -0.185,-0.128 -0.407,-0.191 -0.667,-0.191 -0.333,0 -0.631,0.091 -0.896,0.273 -0.265,0.182 -0.445,0.424 -0.543,0.725 -0.098,0.301 -0.147,0.857 -0.147,1.668 v 3.288 h -1.921 v -7.26 h 1.784 v 1.066 c 0.633,-0.82 1.431,-1.23 2.393,-1.23 0.424,0 0.811,0.076 1.162,0.229 0.351,0.153 0.616,0.348 0.796,0.584 0.18,0.236 0.305,0.506 0.376,0.807 0.071,0.301 0.106,0.731 0.106,1.292 v 4.512 z" />
					<path
   inkscape:connector-curvature="0"
   id="path60"
   d="m 247.113,80.077 v 1.531 H 245.8 v 2.926 c 0,0.592 0.013,0.938 0.038,1.036 0.025,0.098 0.082,0.179 0.171,0.243 0.089,0.064 0.197,0.096 0.325,0.096 0.178,0 0.435,-0.062 0.772,-0.185 l 0.164,1.49 c -0.447,0.191 -0.953,0.287 -1.518,0.287 -0.346,0 -0.659,-0.058 -0.937,-0.174 -0.278,-0.116 -0.482,-0.267 -0.612,-0.451 -0.13,-0.184 -0.22,-0.434 -0.27,-0.749 -0.041,-0.223 -0.062,-0.674 -0.062,-1.354 v -3.165 h -0.882 v -1.531 h 0.882 v -1.442 l 1.928,-1.121 v 2.563 z" />
					<path
   inkscape:connector-curvature="0"
   id="path62"
   d="m 250.285,87.336 h -1.921 v -7.26 h 1.784 v 1.032 c 0.305,-0.488 0.58,-0.809 0.824,-0.964 0.244,-0.155 0.521,-0.232 0.831,-0.232 0.438,0 0.859,0.121 1.265,0.362 l -0.595,1.675 c -0.324,-0.209 -0.625,-0.314 -0.902,-0.314 -0.269,0 -0.497,0.074 -0.684,0.222 -0.187,0.148 -0.334,0.416 -0.441,0.803 -0.107,0.387 -0.161,1.199 -0.161,2.434 z" />
					<path
   inkscape:connector-curvature="0"
   id="path64"
   d="m 253.45,83.604 c 0,-0.638 0.157,-1.255 0.472,-1.853 0.315,-0.598 0.76,-1.053 1.336,-1.367 0.577,-0.314 1.221,-0.472 1.932,-0.472 1.098,0 1.998,0.356 2.7,1.07 0.702,0.714 1.053,1.614 1.053,2.704 0,1.098 -0.354,2.009 -1.063,2.731 -0.708,0.722 -1.6,1.083 -2.676,1.083 -0.666,0 -1.3,-0.15 -1.904,-0.451 -0.604,-0.301 -1.063,-0.742 -1.377,-1.323 -0.314,-0.581 -0.473,-1.288 -0.473,-2.122 z m 1.969,0.103 c 0,0.72 0.171,1.271 0.513,1.654 0.342,0.383 0.764,0.574 1.265,0.574 0.501,0 0.922,-0.191 1.261,-0.574 0.34,-0.383 0.51,-0.939 0.51,-1.668 0,-0.711 -0.17,-1.258 -0.51,-1.641 -0.339,-0.383 -0.76,-0.574 -1.261,-0.574 -0.501,0 -0.923,0.191 -1.265,0.574 -0.342,0.383 -0.513,0.934 -0.513,1.655 z" />
					<path
   inkscape:connector-curvature="0"
   id="path66"
   d="M 262.446,87.336 V 77.315 h 1.921 v 10.021 z" />
					<path
   inkscape:connector-curvature="0"
   id="path68"
   d="m 270.226,77.315 h 2.023 v 5.428 c 0,0.861 0.024,1.419 0.075,1.675 0.086,0.41 0.293,0.739 0.619,0.988 0.325,0.249 0.771,0.373 1.336,0.373 0.574,0 1.008,-0.117 1.299,-0.352 0.291,-0.235 0.467,-0.523 0.526,-0.865 0.059,-0.342 0.089,-0.909 0.089,-1.702 v -5.544 h 2.023 v 5.264 c 0,1.203 -0.055,2.053 -0.164,2.55 -0.109,0.497 -0.311,0.916 -0.605,1.258 -0.293,0.342 -0.687,0.614 -1.179,0.817 -0.492,0.203 -1.135,0.304 -1.928,0.304 -0.957,0 -1.683,-0.11 -2.177,-0.332 -0.495,-0.221 -0.886,-0.508 -1.173,-0.861 -0.287,-0.353 -0.476,-0.724 -0.567,-1.111 -0.133,-0.574 -0.198,-1.422 -0.198,-2.543 v -5.347 z" />
					<path
   inkscape:connector-curvature="0"
   id="path70"
   d="m 286.939,87.336 h -1.921 v -3.705 c 0,-0.784 -0.041,-1.291 -0.123,-1.521 -0.082,-0.23 -0.216,-0.409 -0.399,-0.537 -0.186,-0.127 -0.407,-0.191 -0.667,-0.191 -0.333,0 -0.632,0.091 -0.896,0.273 -0.264,0.182 -0.445,0.424 -0.543,0.725 -0.099,0.301 -0.147,0.857 -0.147,1.668 v 3.288 h -1.921 v -7.26 h 1.784 v 1.066 c 0.634,-0.82 1.431,-1.23 2.393,-1.23 0.424,0 0.812,0.076 1.162,0.229 0.35,0.153 0.616,0.348 0.796,0.584 0.181,0.237 0.306,0.506 0.377,0.807 0.07,0.301 0.105,0.731 0.105,1.292 z" />
					<path
   inkscape:connector-curvature="0"
   id="path72"
   d="m 288.888,79.092 v -1.777 h 1.921 v 1.777 z m 0,8.244 v -7.26 h 1.921 v 7.26 z" />
					<path
   inkscape:connector-curvature="0"
   id="path74"
   d="m 296.106,80.077 v 1.531 h -1.313 v 2.926 c 0,0.592 0.013,0.938 0.038,1.036 0.024,0.098 0.082,0.179 0.17,0.243 0.09,0.064 0.197,0.096 0.325,0.096 0.178,0 0.435,-0.062 0.772,-0.185 l 0.164,1.49 c -0.447,0.191 -0.953,0.287 -1.518,0.287 -0.346,0 -0.658,-0.058 -0.937,-0.174 -0.279,-0.116 -0.481,-0.267 -0.612,-0.451 -0.129,-0.185 -0.219,-0.434 -0.27,-0.749 -0.041,-0.223 -0.062,-0.674 -0.062,-1.354 v -3.165 h -0.882 v -1.531 h 0.882 v -1.442 l 1.928,-1.121 v 2.563 z" />
				</g>
			</g>
			<g
   id="g124">
				<rect
   style="fill:#f99dcb;stroke:#000000;stroke-width:2;stroke-miterlimit:10"
   id="rect80"
   height="42"
   width="160"
   stroke-miterlimit="10"
   y="122.5"
   x="175" />
				<g
   id="g122">
					<path
   inkscape:connector-curvature="0"
   id="path82"
   d="m 194.276,147.336 h -2.201 L 191.2,145.06 h -4.006 l -0.827,2.276 h -2.146 l 3.903,-10.021 h 2.14 z m -3.725,-3.964 -1.381,-3.719 -1.354,3.719 z" />
					<path
   inkscape:connector-curvature="0"
   id="path84"
   d="m 197.175,147.336 h -1.921 v -7.26 h 1.784 v 1.032 c 0.305,-0.488 0.58,-0.809 0.824,-0.964 0.244,-0.155 0.521,-0.232 0.831,-0.232 0.438,0 0.859,0.121 1.265,0.362 l -0.595,1.675 c -0.324,-0.209 -0.625,-0.314 -0.902,-0.314 -0.269,0 -0.497,0.074 -0.684,0.222 -0.187,0.148 -0.334,0.416 -0.441,0.803 -0.107,0.387 -0.161,1.199 -0.161,2.434 z" />
					<path
   inkscape:connector-curvature="0"
   id="path86"
   d="m 200.784,139.092 v -1.777 h 1.921 v 1.777 z m 0,8.244 v -7.26 h 1.921 v 7.26 z" />
					<path
   inkscape:connector-curvature="0"
   id="path88"
   d="m 208.003,140.077 v 1.531 h -1.313 v 2.926 c 0,0.592 0.013,0.938 0.038,1.036 0.025,0.098 0.082,0.179 0.171,0.243 0.089,0.064 0.197,0.096 0.325,0.096 0.178,0 0.435,-0.062 0.772,-0.185 l 0.164,1.49 c -0.447,0.191 -0.953,0.287 -1.518,0.287 -0.346,0 -0.659,-0.058 -0.937,-0.174 -0.278,-0.116 -0.482,-0.267 -0.612,-0.451 -0.13,-0.184 -0.22,-0.434 -0.27,-0.749 -0.041,-0.223 -0.062,-0.674 -0.062,-1.354 v -3.165 h -0.882 v -1.531 h 0.882 v -1.442 l 1.928,-1.121 v 2.563 z" />
					<path
   inkscape:connector-curvature="0"
   id="path90"
   d="M 211.25,137.315 V 141 c 0.62,-0.725 1.36,-1.087 2.222,-1.087 0.442,0 0.841,0.082 1.196,0.246 0.355,0.164 0.623,0.374 0.803,0.629 0.18,0.255 0.303,0.538 0.369,0.848 0.066,0.31 0.099,0.791 0.099,1.442 v 4.259 h -1.921 v -3.835 c 0,-0.761 -0.037,-1.244 -0.109,-1.449 -0.072,-0.205 -0.202,-0.368 -0.386,-0.489 -0.184,-0.121 -0.416,-0.181 -0.694,-0.181 -0.319,0 -0.604,0.078 -0.854,0.232 -0.25,0.154 -0.434,0.389 -0.55,0.701 -0.116,0.312 -0.174,0.773 -0.174,1.384 v 3.637 h -1.921 v -10.021 h 1.92 z" />
					<path
   inkscape:connector-curvature="0"
   id="path92"
   d="m 217.744,140.077 h 1.771 v 0.991 c 0.633,-0.77 1.388,-1.155 2.263,-1.155 0.465,0 0.868,0.096 1.21,0.287 0.342,0.191 0.622,0.481 0.841,0.868 0.319,-0.387 0.663,-0.677 1.032,-0.868 0.369,-0.191 0.763,-0.287 1.183,-0.287 0.533,0 0.984,0.108 1.354,0.325 0.37,0.217 0.645,0.534 0.827,0.954 0.132,0.31 0.198,0.811 0.198,1.504 v 4.642 h -1.921 v -4.149 c 0,-0.72 -0.066,-1.185 -0.198,-1.395 -0.178,-0.273 -0.451,-0.41 -0.82,-0.41 -0.269,0 -0.522,0.082 -0.759,0.246 -0.237,0.164 -0.408,0.404 -0.513,0.721 -0.105,0.317 -0.157,0.817 -0.157,1.5 v 3.486 h -1.921 v -3.979 c 0,-0.707 -0.034,-1.162 -0.103,-1.367 -0.069,-0.205 -0.174,-0.358 -0.318,-0.458 -0.144,-0.1 -0.338,-0.15 -0.584,-0.15 -0.296,0 -0.563,0.08 -0.8,0.239 -0.237,0.159 -0.407,0.39 -0.509,0.69 -0.102,0.3 -0.154,0.8 -0.154,1.497 v 3.527 h -1.921 v -7.259 z" />
					<path
   inkscape:connector-curvature="0"
   id="path94"
   d="m 234.54,145.026 1.914,0.321 c -0.246,0.702 -0.635,1.236 -1.166,1.603 -0.531,0.367 -1.195,0.55 -1.993,0.55 -1.262,0 -2.197,-0.413 -2.803,-1.237 -0.479,-0.661 -0.718,-1.495 -0.718,-2.502 0,-1.203 0.314,-2.146 0.943,-2.827 0.629,-0.681 1.424,-1.022 2.386,-1.022 1.08,0 1.932,0.356 2.557,1.07 0.625,0.714 0.923,1.806 0.896,3.278 h -4.813 c 0.014,0.57 0.168,1.013 0.465,1.33 0.297,0.317 0.666,0.475 1.107,0.475 0.301,0 0.554,-0.082 0.759,-0.246 0.205,-0.164 0.361,-0.428 0.466,-0.793 z m 0.109,-1.942 c -0.014,-0.556 -0.157,-0.979 -0.431,-1.268 -0.274,-0.289 -0.606,-0.434 -0.998,-0.434 -0.419,0 -0.766,0.153 -1.039,0.458 -0.273,0.305 -0.408,0.72 -0.403,1.244 z" />
					<path
   inkscape:connector-curvature="0"
   id="path96"
   d="m 241.451,140.077 v 1.531 h -1.313 v 2.926 c 0,0.592 0.013,0.938 0.038,1.036 0.025,0.098 0.082,0.179 0.171,0.243 0.089,0.064 0.197,0.096 0.325,0.096 0.178,0 0.435,-0.062 0.772,-0.185 l 0.164,1.49 c -0.447,0.191 -0.953,0.287 -1.518,0.287 -0.346,0 -0.659,-0.058 -0.937,-0.174 -0.278,-0.116 -0.482,-0.267 -0.612,-0.451 -0.13,-0.184 -0.22,-0.434 -0.27,-0.749 -0.041,-0.223 -0.062,-0.674 -0.062,-1.354 v -3.165 h -0.882 v -1.531 h 0.882 v -1.442 l 1.928,-1.121 v 2.563 z" />
					<path
   inkscape:connector-curvature="0"
   id="path98"
   d="m 242.784,139.092 v -1.777 h 1.921 v 1.777 z m 0,8.244 v -7.26 h 1.921 v 7.26 z" />
					<path
   inkscape:connector-curvature="0"
   id="path100"
   d="m 253.004,142.223 -1.894,0.342 c -0.064,-0.378 -0.208,-0.663 -0.434,-0.854 -0.226,-0.191 -0.519,-0.287 -0.878,-0.287 -0.479,0 -0.86,0.165 -1.145,0.496 -0.285,0.331 -0.427,0.883 -0.427,1.658 0,0.861 0.145,1.47 0.434,1.825 0.289,0.355 0.678,0.533 1.166,0.533 0.365,0 0.663,-0.104 0.896,-0.311 0.233,-0.207 0.396,-0.564 0.492,-1.07 l 1.887,0.321 c -0.196,0.866 -0.572,1.52 -1.128,1.962 -0.556,0.442 -1.301,0.663 -2.235,0.663 -1.062,0 -1.908,-0.335 -2.54,-1.005 -0.632,-0.67 -0.947,-1.597 -0.947,-2.782 0,-1.199 0.317,-2.132 0.95,-2.799 0.633,-0.667 1.49,-1.001 2.57,-1.001 0.884,0 1.587,0.19 2.109,0.571 0.522,0.381 0.896,0.959 1.124,1.738 z" />
					<path
   inkscape:connector-curvature="0"
   id="path102"
   d="m 253.435,147.507 2.481,-10.363 h 1.442 l -2.509,10.363 z" />
					<path
   inkscape:connector-curvature="0"
   id="path104"
   d="m 258.418,147.336 v -9.939 h 2.023 v 8.251 h 5.031 v 1.688 z" />
					<path
   inkscape:connector-curvature="0"
   id="path106"
   d="m 266.457,143.604 c 0,-0.638 0.157,-1.255 0.472,-1.853 0.315,-0.598 0.76,-1.053 1.337,-1.367 0.576,-0.314 1.22,-0.472 1.931,-0.472 1.099,0 1.999,0.356 2.7,1.07 0.701,0.714 1.053,1.614 1.053,2.704 0,1.098 -0.354,2.009 -1.063,2.731 -0.709,0.722 -1.602,1.083 -2.677,1.083 -0.665,0 -1.3,-0.15 -1.903,-0.451 -0.604,-0.301 -1.063,-0.742 -1.378,-1.323 -0.315,-0.581 -0.472,-1.288 -0.472,-2.122 z m 1.969,0.103 c 0,0.72 0.171,1.271 0.513,1.654 0.342,0.383 0.763,0.574 1.265,0.574 0.502,0 0.922,-0.191 1.262,-0.574 0.339,-0.383 0.509,-0.939 0.509,-1.668 0,-0.711 -0.17,-1.258 -0.509,-1.641 -0.34,-0.383 -0.76,-0.574 -1.262,-0.574 -0.502,0 -0.923,0.191 -1.265,0.574 -0.342,0.383 -0.513,0.934 -0.513,1.655 z" />
					<path
   inkscape:connector-curvature="0"
   id="path108"
   d="m 275.275,147.815 2.194,0.267 c 0.036,0.255 0.12,0.431 0.253,0.526 0.182,0.137 0.469,0.205 0.861,0.205 0.502,0 0.877,-0.075 1.128,-0.226 0.169,-0.1 0.296,-0.262 0.383,-0.485 0.06,-0.16 0.089,-0.454 0.089,-0.882 v -1.06 c -0.574,0.784 -1.299,1.176 -2.174,1.176 -0.975,0 -1.748,-0.413 -2.317,-1.237 -0.446,-0.652 -0.67,-1.463 -0.67,-2.434 0,-1.217 0.293,-2.146 0.878,-2.789 0.586,-0.643 1.314,-0.964 2.185,-0.964 0.897,0 1.638,0.394 2.222,1.183 v -1.019 h 1.798 v 6.515 c 0,0.857 -0.071,1.497 -0.212,1.921 -0.141,0.424 -0.34,0.756 -0.595,0.998 -0.255,0.242 -0.596,0.431 -1.022,0.567 -0.426,0.137 -0.965,0.205 -1.616,0.205 -1.23,0 -2.103,-0.211 -2.618,-0.632 -0.515,-0.421 -0.772,-0.956 -0.772,-1.603 -10e-4,-0.064 0.001,-0.141 0.005,-0.232 z m 1.716,-4.259 c 0,0.77 0.149,1.334 0.448,1.692 0.298,0.358 0.666,0.537 1.104,0.537 0.469,0 0.865,-0.184 1.189,-0.55 0.324,-0.366 0.485,-0.91 0.485,-1.63 0,-0.752 -0.155,-1.31 -0.465,-1.675 -0.31,-0.365 -0.702,-0.547 -1.176,-0.547 -0.46,0 -0.84,0.179 -1.138,0.537 -0.297,0.357 -0.447,0.902 -0.447,1.636 z" />
					<path
   inkscape:connector-curvature="0"
   id="path110"
   d="m 284.005,139.092 v -1.777 h 1.921 v 1.777 z m 0,8.244 v -7.26 h 1.921 v 7.26 z" />
					<path
   inkscape:connector-curvature="0"
   id="path112"
   d="m 294.225,142.223 -1.894,0.342 c -0.063,-0.378 -0.208,-0.663 -0.435,-0.854 -0.225,-0.191 -0.518,-0.287 -0.878,-0.287 -0.479,0 -0.86,0.165 -1.146,0.496 -0.284,0.331 -0.427,0.883 -0.427,1.658 0,0.861 0.145,1.47 0.435,1.825 0.289,0.355 0.678,0.533 1.165,0.533 0.364,0 0.663,-0.104 0.896,-0.311 0.233,-0.207 0.396,-0.564 0.492,-1.07 l 1.887,0.321 c -0.195,0.866 -0.572,1.52 -1.128,1.962 -0.556,0.442 -1.302,0.663 -2.235,0.663 -1.063,0 -1.908,-0.335 -2.539,-1.005 -0.632,-0.67 -0.947,-1.597 -0.947,-2.782 0,-1.199 0.316,-2.132 0.95,-2.799 0.634,-0.667 1.49,-1.001 2.57,-1.001 0.884,0 1.587,0.19 2.108,0.571 0.523,0.379 0.897,0.959 1.126,1.738 z" />
					<path
   inkscape:connector-curvature="0"
   id="path114"
   d="m 299.57,137.315 h 2.023 v 5.428 c 0,0.861 0.025,1.419 0.075,1.675 0.087,0.41 0.293,0.739 0.618,0.988 0.326,0.249 0.771,0.373 1.337,0.373 0.574,0 1.007,-0.117 1.299,-0.352 0.292,-0.235 0.468,-0.523 0.526,-0.865 0.058,-0.342 0.089,-0.909 0.089,-1.702 v -5.544 h 2.023 v 5.264 c 0,1.203 -0.055,2.053 -0.164,2.55 -0.109,0.497 -0.312,0.916 -0.604,1.258 -0.295,0.342 -0.688,0.614 -1.18,0.817 -0.492,0.203 -1.135,0.304 -1.928,0.304 -0.957,0 -1.683,-0.11 -2.178,-0.332 -0.494,-0.221 -0.885,-0.508 -1.172,-0.861 -0.287,-0.353 -0.477,-0.724 -0.567,-1.111 -0.132,-0.574 -0.198,-1.422 -0.198,-2.543 v -5.347 z" />
					<path
   inkscape:connector-curvature="0"
   id="path116"
   d="m 316.284,147.336 h -1.921 v -3.705 c 0,-0.784 -0.041,-1.291 -0.123,-1.521 -0.082,-0.23 -0.215,-0.409 -0.4,-0.537 -0.184,-0.127 -0.406,-0.191 -0.666,-0.191 -0.332,0 -0.631,0.091 -0.896,0.273 -0.265,0.182 -0.445,0.424 -0.544,0.725 -0.098,0.301 -0.146,0.857 -0.146,1.668 v 3.288 h -1.921 v -7.26 h 1.784 v 1.066 c 0.633,-0.82 1.432,-1.23 2.393,-1.23 0.424,0 0.811,0.076 1.162,0.229 0.351,0.153 0.616,0.348 0.797,0.584 0.18,0.237 0.305,0.506 0.375,0.807 0.071,0.301 0.106,0.731 0.106,1.292 z" />
					<path
   inkscape:connector-curvature="0"
   id="path118"
   d="m 318.232,139.092 v -1.777 h 1.921 v 1.777 z m 0,8.244 v -7.26 h 1.921 v 7.26 z" />
					<path
   inkscape:connector-curvature="0"
   id="path120"
   d="m 325.451,140.077 v 1.531 h -1.313 v 2.926 c 0,0.592 0.013,0.938 0.037,1.036 0.025,0.098 0.082,0.179 0.172,0.243 0.088,0.064 0.197,0.096 0.324,0.096 0.178,0 0.436,-0.062 0.772,-0.185 l 0.164,1.49 c -0.446,0.191 -0.952,0.287 -1.518,0.287 -0.347,0 -0.659,-0.058 -0.937,-0.174 -0.278,-0.116 -0.482,-0.267 -0.611,-0.451 -0.131,-0.185 -0.221,-0.434 -0.271,-0.749 -0.041,-0.223 -0.062,-0.674 -0.062,-1.354 v -3.165 h -0.882 v -1.531 h 0.882 v -1.442 l 1.928,-1.121 v 2.563 z" />
				</g>
			</g>
		</g>
		<g
   id="g152">
			<rect
   style="fill:#ffffff;stroke:#000000;stroke-width:2;stroke-miterlimit:10"
   id="rect128"
   height="45"
   width="190"
   stroke-miterlimit="10"
   y="233.5"
   x="160" />
			<g
   id="g150">
				<path
   inkscape:connector-curvature="0"
   id="path130"
   d="m 213.598,260.336 v -10.021 h 3.028 l 1.818,6.836 1.798,-6.836 h 3.035 v 10.021 h -1.88 v -7.889 l -1.989,7.889 h -1.948 l -1.982,-7.889 v 7.889 z" />
				<path
   inkscape:connector-curvature="0"
   id="path132"
   d="m 229.478,258.025 1.914,0.322 c -0.246,0.701 -0.635,1.236 -1.166,1.603 -0.531,0.367 -1.195,0.55 -1.993,0.55 -1.262,0 -2.197,-0.412 -2.803,-1.236 -0.479,-0.661 -0.718,-1.495 -0.718,-2.502 0,-1.203 0.314,-2.146 0.943,-2.827 0.629,-0.681 1.424,-1.022 2.386,-1.022 1.08,0 1.932,0.357 2.557,1.07 0.625,0.713 0.923,1.806 0.896,3.277 h -4.813 c 0.014,0.57 0.168,1.014 0.465,1.33 0.297,0.316 0.666,0.475 1.107,0.475 0.301,0 0.554,-0.082 0.759,-0.246 0.205,-0.164 0.361,-0.428 0.466,-0.794 z m 0.109,-1.941 c -0.014,-0.556 -0.157,-0.979 -0.431,-1.268 -0.274,-0.289 -0.606,-0.434 -0.998,-0.434 -0.419,0 -0.766,0.152 -1.039,0.457 -0.273,0.306 -0.408,0.721 -0.403,1.244 h 2.871 z" />
				<path
   inkscape:connector-curvature="0"
   id="path134"
   d="m 232.917,253.076 h 1.771 v 0.992 c 0.633,-0.771 1.388,-1.156 2.263,-1.156 0.465,0 0.868,0.096 1.21,0.287 0.342,0.191 0.622,0.481 0.841,0.869 0.319,-0.388 0.663,-0.678 1.032,-0.869 0.369,-0.191 0.763,-0.287 1.183,-0.287 0.533,0 0.984,0.109 1.354,0.325 0.37,0.216 0.645,0.534 0.827,0.954 0.132,0.31 0.198,0.811 0.198,1.504 v 4.641 h -1.921 v -4.148 c 0,-0.721 -0.066,-1.186 -0.198,-1.395 -0.178,-0.273 -0.451,-0.41 -0.82,-0.41 -0.269,0 -0.522,0.082 -0.759,0.246 -0.237,0.164 -0.408,0.404 -0.513,0.721 -0.105,0.317 -0.157,0.816 -0.157,1.5 v 3.486 h -1.921 v -3.979 c 0,-0.706 -0.034,-1.162 -0.103,-1.367 -0.069,-0.205 -0.174,-0.357 -0.318,-0.457 -0.144,-0.101 -0.338,-0.15 -0.584,-0.15 -0.296,0 -0.563,0.079 -0.8,0.238 -0.237,0.16 -0.407,0.391 -0.509,0.691 -0.102,0.3 -0.154,0.799 -0.154,1.496 v 3.527 h -1.921 v -7.259 z" />
				<path
   inkscape:connector-curvature="0"
   id="path136"
   d="m 245.064,256.604 c 0,-0.638 0.157,-1.255 0.472,-1.852 0.314,-0.598 0.76,-1.053 1.336,-1.367 0.576,-0.314 1.22,-0.473 1.931,-0.473 1.098,0 1.999,0.357 2.7,1.07 0.701,0.713 1.053,1.614 1.053,2.703 0,1.099 -0.354,2.01 -1.063,2.731 -0.709,0.721 -1.601,1.083 -2.676,1.083 -0.666,0 -1.3,-0.15 -1.904,-0.451 -0.604,-0.301 -1.063,-0.741 -1.377,-1.322 -0.314,-0.581 -0.472,-1.288 -0.472,-2.122 z m 1.969,0.103 c 0,0.72 0.171,1.271 0.513,1.654 0.342,0.383 0.763,0.574 1.265,0.574 0.502,0 0.922,-0.191 1.261,-0.574 0.339,-0.383 0.509,-0.939 0.509,-1.668 0,-0.711 -0.17,-1.258 -0.509,-1.641 -0.339,-0.383 -0.76,-0.574 -1.261,-0.574 -0.501,0 -0.923,0.191 -1.265,0.574 -0.342,0.383 -0.513,0.934 -0.513,1.655 z" />
				<path
   inkscape:connector-curvature="0"
   id="path138"
   d="m 255.898,260.336 h -1.92 v -7.26 h 1.784 v 1.033 c 0.306,-0.488 0.58,-0.81 0.824,-0.965 0.244,-0.154 0.521,-0.232 0.83,-0.232 0.438,0 0.859,0.121 1.266,0.363 l -0.596,1.674 c -0.323,-0.209 -0.624,-0.314 -0.902,-0.314 -0.269,0 -0.496,0.074 -0.684,0.223 -0.187,0.148 -0.334,0.416 -0.44,0.803 -0.106,0.388 -0.161,1.199 -0.161,2.434 v 2.241 z" />
				<path
   inkscape:connector-curvature="0"
   id="path140"
   d="m 258.6,253.076 h 2.043 l 1.736,5.154 1.695,-5.154 h 1.99 l -2.564,6.986 -0.457,1.266 c -0.169,0.424 -0.33,0.747 -0.482,0.971 -0.152,0.223 -0.328,0.404 -0.526,0.543 -0.198,0.139 -0.442,0.247 -0.731,0.324 -0.289,0.078 -0.616,0.117 -0.98,0.117 -0.369,0 -0.732,-0.039 -1.088,-0.117 l -0.17,-1.504 c 0.301,0.06 0.571,0.09 0.813,0.09 0.447,0 0.777,-0.131 0.992,-0.394 0.214,-0.263 0.378,-0.596 0.492,-1.001 z" />
				<path
   inkscape:connector-curvature="0"
   id="path142"
   d="m 271.184,250.314 h 2.023 v 5.428 c 0,0.861 0.025,1.42 0.076,1.676 0.086,0.41 0.293,0.738 0.618,0.987 0.325,0.249 0.771,0.372 1.337,0.372 0.574,0 1.007,-0.117 1.299,-0.352 0.291,-0.234 0.467,-0.523 0.525,-0.865 0.06,-0.342 0.09,-0.908 0.09,-1.701 v -5.545 h 2.023 v 5.264 c 0,1.203 -0.055,2.054 -0.164,2.551 -0.109,0.496 -0.312,0.916 -0.605,1.258 -0.293,0.342 -0.688,0.613 -1.18,0.816 -0.492,0.203 -1.135,0.305 -1.928,0.305 -0.957,0 -1.682,-0.111 -2.177,-0.332 -0.495,-0.221 -0.886,-0.508 -1.173,-0.861 -0.287,-0.353 -0.476,-0.724 -0.566,-1.111 -0.133,-0.574 -0.199,-1.422 -0.199,-2.543 v -5.347 z" />
				<path
   inkscape:connector-curvature="0"
   id="path144"
   d="m 287.898,260.336 h -1.922 v -3.705 c 0,-0.783 -0.041,-1.291 -0.123,-1.521 -0.082,-0.23 -0.215,-0.409 -0.399,-0.536 -0.185,-0.128 -0.407,-0.191 -0.667,-0.191 -0.332,0 -0.631,0.091 -0.895,0.273 -0.265,0.182 -0.445,0.424 -0.544,0.725 -0.099,0.301 -0.147,0.856 -0.147,1.668 v 3.287 h -1.92 v -7.26 h 1.783 v 1.066 c 0.634,-0.82 1.432,-1.23 2.393,-1.23 0.424,0 0.812,0.076 1.162,0.229 0.352,0.153 0.617,0.348 0.797,0.585 0.18,0.236 0.305,0.506 0.376,0.807 0.071,0.301 0.106,0.73 0.106,1.291 z" />
				<path
   inkscape:connector-curvature="0"
   id="path146"
   d="m 289.846,252.092 v -1.777 h 1.922 v 1.777 z m 0,8.244 v -7.26 h 1.922 v 7.26 z" />
				<path
   inkscape:connector-curvature="0"
   id="path148"
   d="m 297.064,253.076 v 1.531 h -1.313 v 2.926 c 0,0.593 0.014,0.938 0.038,1.036 0.024,0.098 0.082,0.179 0.171,0.243 0.089,0.063 0.197,0.096 0.324,0.096 0.178,0 0.436,-0.063 0.773,-0.186 l 0.164,1.49 c -0.447,0.191 -0.953,0.287 -1.518,0.287 -0.347,0 -0.659,-0.058 -0.938,-0.174 -0.277,-0.116 -0.481,-0.267 -0.611,-0.451 -0.13,-0.184 -0.22,-0.434 -0.27,-0.748 -0.041,-0.224 -0.063,-0.675 -0.063,-1.354 v -3.166 h -0.881 v -1.531 h 0.881 v -1.441 l 1.928,-1.121 v 2.563 z" />
			</g>
		</g>
		<g
   id="g166">
			<g
   id="g158">
				<line
   style="fill:none;stroke:#000000;stroke-width:2;stroke-miterlimit:10"
   id="line154"
   y2="224.5"
   x2="244"
   y1="182.5"
   x1="244"
   stroke-miterlimit="10" />
				<polygon
   style="stroke:#000000;stroke-width:2;stroke-miterlimit:10"
   id="polygon156"
   points="249,224.5 244,230.5 239,224.5 244,224.5 "
   stroke-miterlimit="10" />
			</g>
			<g
   id="g164">
				<line
   style="fill:none;stroke:#000000;stroke-width:2;stroke-miterlimit:10"
   id="line160"
   y2="190.5"
   x2="266"
   y1="232.5"
   x1="266"
   stroke-miterlimit="10" />
				<polygon
   style="stroke:#000000;stroke-width:2;stroke-miterlimit:10"
   id="polygon162"
   points="260.998,190.5 265.998,184.5 270.999,190.5 265.998,190.5 "
   stroke-miterlimit="10" />
			</g>
		</g>
	</g><g
   id="g174">
			<line
   stroke-miterlimit="10"
   x1="86"
   y1="146.5"
   x2="136"
   y2="146.5"
   id="line170"
   style="fill:none;stroke:#000000;stroke-width:2;stroke-miterlimit:10" />
			<polygon
   stroke-miterlimit="10"
   points="136,141.5 142,146.5 136,151.5 136,146.5 "
   id="polygon172"
   style="stroke:#000000;stroke-width:2;stroke-miterlimit:10" />
		</g><rect
   style="fill:#ffffff;stroke:#000000;stroke-width:2;stroke-miterlimit:10"
   id="rect200"
   height="65"
   width="85"
   stroke-miterlimit="10"
   y="114.5"
   x="1" /><g
   id="g198"
   style="filter:url(#filter1222)">
				<path
   inkscape:connector-curvature="0"
   id="path176"
   d="m 27.604,141.836 v -10.021 h 2.023 v 10.021 z" />
				<path
   inkscape:connector-curvature="0"
   id="path178"
   d="m 38.145,141.836 h -1.921 v -3.705 c 0,-0.784 -0.041,-1.291 -0.123,-1.521 -0.082,-0.23 -0.215,-0.409 -0.4,-0.537 -0.185,-0.128 -0.407,-0.191 -0.667,-0.191 -0.333,0 -0.631,0.091 -0.896,0.273 -0.265,0.182 -0.445,0.424 -0.543,0.725 -0.098,0.301 -0.147,0.857 -0.147,1.668 v 3.288 h -1.921 v -7.26 h 1.784 v 1.066 c 0.633,-0.82 1.431,-1.23 2.393,-1.23 0.424,0 0.811,0.076 1.162,0.229 0.351,0.153 0.616,0.348 0.796,0.584 0.18,0.236 0.305,0.506 0.376,0.807 0.071,0.301 0.106,0.731 0.106,1.292 v 4.512 z" />
				<path
   inkscape:connector-curvature="0"
   id="path180"
   d="m 40.038,134.577 h 1.791 v 1.066 c 0.232,-0.365 0.547,-0.661 0.943,-0.889 0.396,-0.228 0.836,-0.342 1.319,-0.342 0.843,0 1.559,0.331 2.146,0.991 0.587,0.66 0.882,1.582 0.882,2.762 0,1.212 -0.296,2.154 -0.889,2.827 -0.593,0.673 -1.309,1.008 -2.152,1.008 -0.401,0 -0.765,-0.08 -1.09,-0.239 -0.325,-0.159 -0.669,-0.433 -1.029,-0.82 v 3.657 h -1.921 z m 1.9,3.506 c 0,0.816 0.162,1.418 0.485,1.808 0.323,0.39 0.718,0.584 1.183,0.584 0.447,0 0.818,-0.179 1.114,-0.537 0.296,-0.358 0.444,-0.944 0.444,-1.76 0,-0.761 -0.153,-1.326 -0.458,-1.695 -0.305,-0.369 -0.684,-0.554 -1.135,-0.554 -0.469,0 -0.859,0.181 -1.169,0.543 -0.31,0.362 -0.464,0.901 -0.464,1.611 z" />
				<path
   inkscape:connector-curvature="0"
   id="path182"
   d="m 53.423,141.836 v -1.087 c -0.264,0.387 -0.612,0.693 -1.042,0.916 -0.43,0.223 -0.886,0.335 -1.364,0.335 -0.488,0 -0.925,-0.107 -1.313,-0.321 -0.388,-0.214 -0.667,-0.515 -0.841,-0.902 -0.174,-0.387 -0.26,-0.923 -0.26,-1.606 v -4.594 h 1.921 v 3.336 c 0,1.021 0.035,1.646 0.106,1.876 0.071,0.23 0.199,0.413 0.386,0.547 0.187,0.134 0.424,0.202 0.711,0.202 0.328,0 0.622,-0.09 0.882,-0.27 0.26,-0.18 0.438,-0.403 0.533,-0.67 0.095,-0.267 0.144,-0.919 0.144,-1.958 v -3.063 h 1.921 v 7.26 h -1.784 z" />
				<path
   inkscape:connector-curvature="0"
   id="path184"
   d="m 60.525,134.577 v 1.531 h -1.313 v 2.926 c 0,0.592 0.013,0.938 0.038,1.036 0.025,0.098 0.082,0.179 0.171,0.243 0.089,0.064 0.197,0.096 0.325,0.096 0.178,0 0.435,-0.062 0.772,-0.185 l 0.164,1.49 C 60.236,141.905 59.73,142 59.165,142 c -0.346,0 -0.659,-0.058 -0.937,-0.174 -0.278,-0.116 -0.482,-0.267 -0.612,-0.451 -0.13,-0.184 -0.22,-0.434 -0.27,-0.749 -0.041,-0.223 -0.062,-0.674 -0.062,-1.354 v -3.165 h -0.882 v -1.531 h 0.882 v -1.442 l 1.928,-1.121 v 2.563 h 1.313 z" />
				<path
   inkscape:connector-curvature="0"
   id="path186"
   d="m 22.189,148.615 h 3.698 c 0.834,0 1.47,0.064 1.907,0.191 0.588,0.173 1.091,0.481 1.511,0.923 0.42,0.442 0.738,0.983 0.957,1.624 0.219,0.641 0.328,1.43 0.328,2.369 0,0.825 -0.103,1.536 -0.308,2.133 -0.25,0.729 -0.608,1.319 -1.073,1.771 -0.351,0.342 -0.825,0.608 -1.422,0.8 -0.447,0.141 -1.043,0.212 -1.791,0.212 h -3.808 v -10.023 z m 2.024,1.695 v 6.638 h 1.511 c 0.565,0 0.973,-0.032 1.224,-0.096 0.328,-0.082 0.601,-0.221 0.817,-0.417 0.216,-0.196 0.393,-0.519 0.53,-0.967 0.137,-0.448 0.205,-1.061 0.205,-1.835 0,-0.774 -0.068,-1.37 -0.205,-1.784 -0.137,-0.414 -0.328,-0.738 -0.574,-0.971 -0.246,-0.233 -0.558,-0.39 -0.937,-0.472 -0.283,-0.064 -0.836,-0.096 -1.661,-0.096 z" />
				<path
   inkscape:connector-curvature="0"
   id="path188"
   d="m 36.497,156.326 1.914,0.321 c -0.246,0.702 -0.635,1.236 -1.166,1.603 -0.531,0.367 -1.195,0.55 -1.993,0.55 -1.262,0 -2.197,-0.413 -2.803,-1.237 -0.479,-0.661 -0.718,-1.495 -0.718,-2.502 0,-1.203 0.314,-2.146 0.943,-2.827 0.629,-0.681 1.424,-1.022 2.386,-1.022 1.08,0 1.932,0.356 2.557,1.07 0.625,0.714 0.923,1.806 0.896,3.278 H 33.7 c 0.014,0.57 0.168,1.013 0.465,1.33 0.297,0.317 0.666,0.475 1.107,0.475 0.301,0 0.554,-0.082 0.759,-0.246 0.205,-0.164 0.361,-0.429 0.466,-0.793 z m 0.109,-1.942 c -0.014,-0.556 -0.157,-0.979 -0.431,-1.268 -0.274,-0.289 -0.606,-0.434 -0.998,-0.434 -0.419,0 -0.766,0.153 -1.039,0.458 -0.273,0.305 -0.408,0.72 -0.403,1.244 z" />
				<path
   inkscape:connector-curvature="0"
   id="path190"
   d="m 42.075,158.636 -2.926,-7.26 h 2.017 l 1.367,3.705 0.396,1.237 c 0.105,-0.314 0.171,-0.522 0.198,-0.622 0.064,-0.205 0.132,-0.41 0.205,-0.615 l 1.381,-3.705 h 1.976 l -2.885,7.26 z" />
				<path
   inkscape:connector-curvature="0"
   id="path192"
   d="m 47.865,150.392 v -1.777 h 1.921 v 1.777 z m 0,8.244 v -7.26 h 1.921 v 7.26 z" />
				<path
   inkscape:connector-curvature="0"
   id="path194"
   d="m 58.085,153.523 -1.894,0.342 c -0.064,-0.378 -0.208,-0.663 -0.434,-0.854 -0.226,-0.191 -0.519,-0.287 -0.878,-0.287 -0.479,0 -0.86,0.165 -1.145,0.496 -0.285,0.331 -0.427,0.883 -0.427,1.658 0,0.861 0.145,1.47 0.434,1.825 0.289,0.355 0.678,0.533 1.166,0.533 0.365,0 0.663,-0.104 0.896,-0.311 0.233,-0.207 0.396,-0.564 0.492,-1.07 l 1.887,0.321 c -0.196,0.866 -0.572,1.52 -1.128,1.962 -0.556,0.442 -1.301,0.663 -2.235,0.663 -1.062,0 -1.908,-0.335 -2.54,-1.005 -0.632,-0.67 -0.947,-1.597 -0.947,-2.782 0,-1.199 0.317,-2.132 0.95,-2.799 0.633,-0.667 1.49,-1.001 2.57,-1.001 0.884,0 1.587,0.19 2.109,0.571 0.522,0.381 0.896,0.959 1.124,1.738 z" />
				<path
   inkscape:connector-curvature="0"
   id="path196"
   d="m 63.745,156.326 1.914,0.321 c -0.246,0.702 -0.635,1.236 -1.166,1.603 -0.531,0.367 -1.195,0.55 -1.993,0.55 -1.262,0 -2.197,-0.413 -2.803,-1.237 -0.479,-0.661 -0.718,-1.495 -0.718,-2.502 0,-1.203 0.314,-2.146 0.943,-2.827 0.629,-0.681 1.424,-1.022 2.386,-1.022 1.08,0 1.932,0.356 2.557,1.07 0.625,0.714 0.923,1.806 0.896,3.278 h -4.813 c 0.014,0.57 0.168,1.013 0.465,1.33 0.297,0.317 0.666,0.475 1.107,0.475 0.301,0 0.554,-0.082 0.759,-0.246 0.205,-0.164 0.361,-0.429 0.466,-0.793 z m 0.109,-1.942 c -0.014,-0.556 -0.157,-0.979 -0.431,-1.268 -0.274,-0.289 -0.606,-0.434 -0.998,-0.434 -0.419,0 -0.766,0.153 -1.039,0.458 -0.273,0.305 -0.408,0.72 -0.403,1.244 z" />
			</g><g
   id="g210">
			<line
   stroke-miterlimit="10"
   x1="365"
   y1="145.5"
   x2="415"
   y2="145.5"
   id="line206"
   style="fill:none;stroke:#000000;stroke-width:2;stroke-miterlimit:10" />
			<polygon
   stroke-miterlimit="10"
   points="421,145.5 415,150.5 415,145.5 415,140.5 "
   id="polygon208"
   style="stroke:#000000;stroke-width:2;stroke-miterlimit:10" />
		</g><rect
   x="424"
   y="113.5"
   stroke-miterlimit="10"
   width="85"
   height="65"
   id="rect238"
   style="fill:#ffffff;stroke:#000000;stroke-width:2;stroke-miterlimit:10" /><g
   id="g236">
			<path
   d="m 443.924,135.887 c 0,-1.021 0.152,-1.877 0.458,-2.57 0.228,-0.51 0.539,-0.968 0.933,-1.374 0.395,-0.406 0.826,-0.707 1.296,-0.902 0.624,-0.264 1.345,-0.396 2.16,-0.396 1.477,0 2.658,0.458 3.544,1.374 0.887,0.916 1.33,2.19 1.33,3.821 0,1.618 -0.439,2.884 -1.319,3.797 -0.88,0.913 -2.056,1.371 -3.527,1.371 -1.49,0 -2.675,-0.455 -3.555,-1.364 -0.88,-0.909 -1.32,-2.162 -1.32,-3.757 z m 2.085,-0.068 c 0,1.135 0.263,1.995 0.786,2.581 0.523,0.586 1.189,0.878 1.996,0.878 0.807,0 1.469,-0.291 1.986,-0.872 0.517,-0.581 0.775,-1.453 0.775,-2.615 0,-1.148 -0.252,-2.005 -0.756,-2.57 -0.503,-0.565 -1.172,-0.848 -2.006,-0.848 -0.834,0 -1.506,0.286 -2.017,0.858 -0.511,0.572 -0.764,1.435 -0.764,2.588 z"
   id="path212"
   inkscape:connector-curvature="0" />
			<path
   d="m 459.988,140.836 v -1.087 c -0.264,0.387 -0.611,0.693 -1.043,0.916 -0.43,0.223 -0.885,0.335 -1.363,0.335 -0.488,0 -0.926,-0.107 -1.313,-0.321 -0.387,-0.214 -0.668,-0.515 -0.841,-0.902 -0.173,-0.387 -0.26,-0.923 -0.26,-1.606 v -4.594 h 1.921 v 3.336 c 0,1.021 0.035,1.646 0.105,1.876 0.071,0.23 0.199,0.413 0.387,0.547 0.188,0.134 0.424,0.202 0.711,0.202 0.328,0 0.622,-0.09 0.882,-0.27 0.26,-0.18 0.438,-0.403 0.533,-0.67 0.095,-0.267 0.144,-0.919 0.144,-1.958 v -3.063 h 1.921 v 7.26 h -1.784 z"
   id="path214"
   inkscape:connector-curvature="0" />
			<path
   d="m 467.091,133.577 v 1.531 h -1.313 v 2.926 c 0,0.592 0.013,0.938 0.038,1.036 0.024,0.098 0.082,0.179 0.17,0.243 0.09,0.064 0.197,0.096 0.325,0.096 0.178,0 0.435,-0.062 0.772,-0.185 l 0.164,1.49 c -0.447,0.191 -0.953,0.287 -1.518,0.287 -0.346,0 -0.658,-0.058 -0.937,-0.174 -0.279,-0.116 -0.481,-0.267 -0.612,-0.451 -0.129,-0.185 -0.219,-0.434 -0.27,-0.749 -0.041,-0.223 -0.062,-0.674 -0.062,-1.354 v -3.165 h -0.882 v -1.531 h 0.882 v -1.442 l 1.928,-1.121 v 2.563 z"
   id="path216"
   inkscape:connector-curvature="0" />
			<path
   d="m 468.369,133.577 h 1.791 v 1.066 c 0.232,-0.365 0.547,-0.661 0.943,-0.889 0.396,-0.228 0.836,-0.342 1.319,-0.342 0.843,0 1.559,0.331 2.146,0.991 0.587,0.66 0.882,1.582 0.882,2.762 0,1.212 -0.297,2.154 -0.889,2.827 -0.592,0.673 -1.309,1.008 -2.152,1.008 -0.401,0 -0.765,-0.08 -1.091,-0.239 -0.325,-0.16 -0.668,-0.433 -1.028,-0.82 v 3.657 h -1.921 z m 1.901,3.506 c 0,0.816 0.162,1.418 0.485,1.808 0.323,0.39 0.718,0.584 1.183,0.584 0.447,0 0.818,-0.179 1.114,-0.537 0.296,-0.358 0.444,-0.944 0.444,-1.76 0,-0.761 -0.152,-1.326 -0.458,-1.695 -0.306,-0.369 -0.684,-0.554 -1.135,-0.554 -0.47,0 -0.858,0.181 -1.169,0.543 -0.311,0.362 -0.464,0.901 -0.464,1.611 z"
   id="path218"
   inkscape:connector-curvature="0" />
			<path
   d="m 481.754,140.836 v -1.087 c -0.264,0.387 -0.611,0.693 -1.043,0.916 -0.43,0.223 -0.885,0.335 -1.363,0.335 -0.488,0 -0.926,-0.107 -1.313,-0.321 -0.387,-0.214 -0.668,-0.515 -0.841,-0.902 -0.173,-0.387 -0.26,-0.923 -0.26,-1.606 v -4.594 h 1.921 v 3.336 c 0,1.021 0.035,1.646 0.105,1.876 0.071,0.23 0.199,0.413 0.387,0.547 0.188,0.134 0.424,0.202 0.711,0.202 0.328,0 0.622,-0.09 0.882,-0.27 0.26,-0.18 0.438,-0.403 0.533,-0.67 0.095,-0.267 0.144,-0.919 0.144,-1.958 v -3.063 h 1.921 v 7.26 h -1.784 z"
   id="path220"
   inkscape:connector-curvature="0" />
			<path
   d="m 488.856,133.577 v 1.531 h -1.313 v 2.926 c 0,0.592 0.013,0.938 0.038,1.036 0.024,0.098 0.082,0.179 0.17,0.243 0.09,0.064 0.197,0.096 0.325,0.096 0.178,0 0.435,-0.062 0.772,-0.185 l 0.164,1.49 c -0.447,0.191 -0.953,0.287 -1.518,0.287 -0.346,0 -0.658,-0.058 -0.937,-0.174 -0.279,-0.116 -0.481,-0.267 -0.612,-0.451 -0.129,-0.185 -0.219,-0.434 -0.27,-0.749 -0.041,-0.223 -0.062,-0.674 -0.062,-1.354 v -3.165 h -0.882 v -1.531 h 0.882 v -1.442 l 1.928,-1.121 v 2.563 z"
   id="path222"
   inkscape:connector-curvature="0" />
			<path
   d="m 444.689,147.615 h 3.698 c 0.834,0 1.47,0.064 1.907,0.191 0.588,0.173 1.092,0.481 1.511,0.923 0.419,0.442 0.738,0.983 0.957,1.624 0.219,0.641 0.328,1.43 0.328,2.369 0,0.825 -0.103,1.536 -0.308,2.133 -0.25,0.729 -0.608,1.319 -1.073,1.771 -0.351,0.342 -0.825,0.608 -1.422,0.8 -0.446,0.141 -1.044,0.212 -1.791,0.212 h -3.808 v -10.023 z m 2.024,1.695 v 6.638 h 1.511 c 0.565,0 0.974,-0.032 1.224,-0.096 0.328,-0.082 0.601,-0.221 0.816,-0.417 0.217,-0.196 0.394,-0.519 0.53,-0.967 0.136,-0.448 0.205,-1.061 0.205,-1.835 0,-0.774 -0.068,-1.37 -0.205,-1.784 -0.137,-0.414 -0.328,-0.738 -0.574,-0.971 -0.246,-0.233 -0.558,-0.39 -0.937,-0.472 -0.283,-0.064 -0.836,-0.096 -1.661,-0.096 z"
   id="path224"
   inkscape:connector-curvature="0" />
			<path
   d="m 458.997,155.326 1.914,0.321 c -0.246,0.702 -0.635,1.236 -1.165,1.603 -0.531,0.367 -1.195,0.55 -1.993,0.55 -1.263,0 -2.196,-0.413 -2.803,-1.237 -0.479,-0.661 -0.718,-1.495 -0.718,-2.502 0,-1.203 0.314,-2.146 0.943,-2.827 0.629,-0.681 1.424,-1.022 2.386,-1.022 1.08,0 1.933,0.356 2.557,1.07 0.624,0.714 0.923,1.806 0.896,3.278 h -4.813 c 0.014,0.57 0.168,1.013 0.465,1.33 0.297,0.317 0.666,0.475 1.107,0.475 0.301,0 0.554,-0.082 0.759,-0.246 0.205,-0.164 0.361,-0.429 0.465,-0.793 z m 0.109,-1.942 c -0.014,-0.556 -0.157,-0.979 -0.431,-1.268 -0.274,-0.289 -0.605,-0.434 -0.998,-0.434 -0.42,0 -0.766,0.153 -1.039,0.458 -0.273,0.305 -0.408,0.72 -0.403,1.244 z"
   id="path226"
   inkscape:connector-curvature="0" />
			<path
   d="m 464.575,157.636 -2.926,-7.26 h 2.017 l 1.367,3.705 0.396,1.237 c 0.105,-0.314 0.171,-0.522 0.198,-0.622 0.063,-0.205 0.132,-0.41 0.205,-0.615 l 1.381,-3.705 h 1.976 l -2.885,7.26 z"
   id="path228"
   inkscape:connector-curvature="0" />
			<path
   d="m 470.365,149.392 v -1.777 h 1.921 v 1.777 z m 0,8.244 v -7.26 h 1.921 v 7.26 z"
   id="path230"
   inkscape:connector-curvature="0" />
			<path
   d="m 480.585,152.523 -1.894,0.342 c -0.064,-0.378 -0.209,-0.663 -0.434,-0.854 -0.227,-0.191 -0.52,-0.287 -0.879,-0.287 -0.479,0 -0.86,0.165 -1.145,0.496 -0.285,0.331 -0.428,0.883 -0.428,1.658 0,0.861 0.145,1.47 0.434,1.825 0.29,0.355 0.678,0.533 1.166,0.533 0.365,0 0.663,-0.104 0.896,-0.311 0.233,-0.207 0.396,-0.564 0.492,-1.07 l 1.887,0.321 c -0.196,0.866 -0.571,1.52 -1.128,1.962 -0.557,0.442 -1.301,0.663 -2.235,0.663 -1.062,0 -1.908,-0.335 -2.54,-1.005 -0.631,-0.67 -0.946,-1.597 -0.946,-2.782 0,-1.199 0.317,-2.132 0.95,-2.799 0.633,-0.667 1.49,-1.001 2.57,-1.001 0.885,0 1.587,0.19 2.109,0.571 0.522,0.379 0.897,0.959 1.125,1.738 z"
   id="path232"
   inkscape:connector-curvature="0" />
			<path
   d="m 486.245,155.326 1.914,0.321 c -0.246,0.702 -0.635,1.236 -1.165,1.603 -0.531,0.367 -1.195,0.55 -1.993,0.55 -1.263,0 -2.196,-0.413 -2.803,-1.237 -0.479,-0.661 -0.718,-1.495 -0.718,-2.502 0,-1.203 0.314,-2.146 0.943,-2.827 0.629,-0.681 1.424,-1.022 2.386,-1.022 1.08,0 1.933,0.356 2.557,1.07 0.624,0.714 0.923,1.806 0.896,3.278 h -4.813 c 0.014,0.57 0.168,1.013 0.465,1.33 0.297,0.317 0.666,0.475 1.107,0.475 0.301,0 0.554,-0.082 0.759,-0.246 0.205,-0.164 0.361,-0.429 0.465,-0.793 z m 0.109,-1.942 c -0.014,-0.556 -0.157,-0.979 -0.431,-1.268 -0.274,-0.289 -0.605,-0.434 -0.998,-0.434 -0.42,0 -0.766,0.153 -1.039,0.458 -0.273,0.305 -0.408,0.72 -0.403,1.244 z"
   id="path234"
   inkscape:connector-curvature="0" />
		</g>
<text
   xml:space="preserve"
   style="font-style:normal;font-weight:normal;font-size:40px;line-height:1.25;font-family:sans-serif;letter-spacing:0px;word-spacing:0px;fill:#000000;fill-opacity:1;stroke:none"
   x="24.212999"
   y="150.31"
   id="text1208"><tspan
     sodipodi:role="line"
     id="tspan1206"
     x="24.212999"
     y="185.70062"></tspan></text>
</svg>